<svg width="68" height="77" fill="none" xmlns="http://www.w3.org/2000/svg"><path d="M65.782 50.711A2.22 2.22 0 0068 48.493V42.79a2.22 2.22 0 00-2.218-2.218H52.79v-3.803h1.267a3.807 3.807 0 003.803-3.802V25.36a3.807 3.807 0 00-3.803-3.802H34.719l1.5-3.027a1.267 1.267 0 00-.572-1.698l-3.403-1.69 2.818-5.67 2.27 1.128a3.802 3.802 0 103.382-6.813L33.902.406A3.803 3.803 0 1030.52 7.22l2.27 1.127-2.816 5.67-3.41-1.692a1.268 1.268 0 00-1.699.572L7.687 47.558a3.174 3.174 0 00.89 3.909L6.859 54.93a3.793 3.793 0 00.68 4.337L.132 74.234a1.267 1.267 0 102.272 1.125l7.403-14.962a3.771 3.771 0 002.46-.545 3.814 3.814 0 001.404-1.541l1.72-3.464c.263.071.535.107.809.108a3.178 3.178 0 002.84-1.762l9.005-18.17a3.802 3.802 0 003.196 1.745h1.268v3.93a6.349 6.349 0 00-5.07 6.21v22.817a6.345 6.345 0 006.337 6.337h17.746c.482 0 .963-.054 1.433-.163.357.108.729.163 1.102.163h10.14A3.807 3.807 0 0068 72.26V57.05a3.809 3.809 0 00-2.535-3.585V50.71h.317zM31.648 4.948a1.268 1.268 0 011.127-2.27l6.812 3.38A1.268 1.268 0 1138.46 8.33l-6.813-3.381zm-.532 12.465l2.27 1.127-1.845 3.723-1.476 2.977-2.277-1.13 3.328-6.697zm-4.543-2.254l2.272 1.127-3.328 6.696-2.264-1.123 3.32-6.7zM11.4 57.184a1.268 1.268 0 01-2.27-1.127l1.69-3.407 2.27 1.127-1.69 3.407zm14.095-22.721L22.1 32.777l-1.128 2.271 3.397 1.686-1.125 2.271-3.398-1.686-1.127 2.27 3.4 1.688-1.127 2.271-3.4-1.688-1.128 2.27 3.402 1.69-1.125 2.271-3.404-1.69-1.127 2.272 3.405 1.69-.844 1.703a.634.634 0 01-.85.286l-5.677-2.818a.635.635 0 01-.285-.85l9.85-19.875 6.812 3.381-1.126 2.273zm3.31-6.678l-1.059 2.135-6.804-3.378 1.053-2.146.132-.266 6.811 3.38-.134.275zm2.436 6.448a1.269 1.269 0 01-1.267-1.267v-1.81l1.109-2.26 2.38-4.803h20.594a1.27 1.27 0 011.268 1.267v1.268h-7.606a1.268 1.268 0 000 2.535h7.606v3.803a1.27 1.27 0 01-1.268 1.267H31.241zM29.974 46.91a3.807 3.807 0 013.802-3.803 1.267 1.267 0 001.268-1.267v-5.07h15.21v11.407h-20.28V46.91zm3.802 26.618a3.807 3.807 0 01-3.802-3.802v-1.268h20.28v3.803c0 .432.074.86.218 1.267H33.776zM50.254 57.05v8.873h-20.28v-15.21h22.815v2.752a3.809 3.809 0 00-2.535 3.585zm15.211 15.21a1.27 1.27 0 01-1.268 1.268h-10.14a1.269 1.269 0 01-1.268-1.267v-1.268h12.676v1.268zm0-8.872H62.93a1.268 1.268 0 000 2.535h2.535v2.535H52.789v-7.605h12.676v2.535zm0-5.07H52.789v-1.268a1.27 1.27 0 011.268-1.267h10.14a1.27 1.27 0 011.268 1.267v1.268zm-10.14-5.07V50.71h7.605v2.535h-7.605zm-2.536-5.07v-5.07h12.676v5.07H52.789z" fill="#000"/></svg>